<?xml version="1.0" encoding="utf-8"?>
<!-- Generator: Adobe Illustrator 18.1.1, SVG Export Plug-In . SVG Version: 6.00 Build 0)  -->
<svg version="1.1" id="Layer_1" xmlns="http://www.w3.org/2000/svg" xmlns:xlink="http://www.w3.org/1999/xlink" x="0px" y="0px"
	 viewBox="0 0 100 100" enable-background="new 0 0 100 100" xml:space="preserve">
<g>
	<path d="M51.2,69.5c-5.8,0-11.6-0.1-17.4,0.1c-0.9,0-2.1,0.5-2.8,1.2c-4.7,4.6-9.4,9.3-14,14c-1.4,1.5-3,2.3-5,1.5
		s-2.4-2.5-2.4-4.5c0.1-3.8-0.1-7.7,0.1-11.5c0.1-1.2,0.6-2.7,1.4-3.5c5.3-5.5,10.8-10.9,16.3-16.3c0.9-0.8,2.3-1.4,3.5-1.4
		C40.8,49,50.7,49,60.6,49c2.8,0,4.4,1.5,4.4,3.8c0,2.4-1.6,3.9-4.4,3.9c-3.6,0-7.3,0-10.9,0c-0.8,0-1.9-0.2-1.9,1.2s1,1.1,1.9,1.1
		c6.3,0,12.5,0,18.8,0c0.8,0,1.8-0.4,2.4-1c4.2-4.1,8.4-8.3,12.6-12.5c1.4-1.4,3-1.8,4.8-0.9c1.6,0.8,2.3,2.3,2,4
		c-0.2,0.9-0.7,1.8-1.3,2.4c-5.6,5.7-11.2,11.4-17.1,17c-0.9,0.8-2.4,1.3-3.6,1.4C62.6,69.6,56.9,69.5,51.2,69.5z"/>
	<path d="M67.1,47.1c-2.4-2.7-5.6-2.6-8.9-2.9c0.5-0.2,1.1-0.4,1.6-0.7c2.3-1.1,3.7-2.9,3.8-5.5c0.1-2.5-0.9-4.5-3.1-5.7
		c-1.7-0.9-3.4-1.6-5.1-2.4c-1.2-0.6-2.4-1.5-2-3.1s1.8-2,3.2-1.9c1.7,0.1,3.3,0.5,5.2,0.7c0.3-0.8,0.6-1.8,1-3
		c-1.7-0.4-3.2-0.8-4.9-1.3c-0.1-0.9-0.1-2-0.2-3.1c-0.9,0-1.8,0-2.7,0c0,1.2,0,2.2,0,3.3c-0.9,0.4-1.8,0.6-2.5,1
		c-4.3,2.1-4.7,7.5-0.7,10.1c1.1,0.7,2.4,1.2,3.6,1.8c1,0.5,2,0.9,2.8,1.6c1.8,1.5,1.4,4.1-0.8,4.6c-1.8,0.4-3.8-0.1-5.7-0.3
		c-0.6-0.1-1.2-0.4-1.8-0.7c-1.5,3.2-1.5,3.2,2.1,4.8c-3,0-6.1,0.1-9.1-0.1c-0.6,0-1.2-1-1.6-1.6c-3.7-5.9-4-12.1-0.7-18.2
		c3.4-6.2,8.8-9.3,15.8-9.3c7.6,0,14.3,4.9,16.7,12C75.5,34.5,73.3,42.2,67.1,47.1z"/>
</g>
</svg>
