<?xml version="1.0" encoding="utf-8"?>
<!-- Generator: Adobe Illustrator 18.1.1, SVG Export Plug-In . SVG Version: 6.00 Build 0)  -->
<svg version="1.1" id="Layer_1" xmlns="http://www.w3.org/2000/svg" xmlns:xlink="http://www.w3.org/1999/xlink" x="0px" y="0px"
	 viewBox="0 0 100 100" enable-background="new 0 0 100 100" xml:space="preserve">
<g>
</g>
<g>
	<path d="M63.2,24.4c0-2.6,0-5.3,0-7.9c0-1-0.3-1.5-1.3-1.5c-2,0-4.1-0.1-6.1,0.1c-0.5,0-1.2,0.8-1.2,1.3c-0.1,5.3-0.1,10.7-0.1,16
		c0,1,0.4,1.4,1.4,1.4c1.9,0,3.7-0.1,5.6,0c1.2,0,1.7-0.3,1.7-1.6C63.1,29.6,63.2,27,63.2,24.4z"/>
	<path d="M70.1,12.1c2.6,0,5-0.1,7.3,0.1c0.8,0,1.6,0.5,2.2,1c2.1,1.9,4.2,3.9,6.2,6c0.6,0.6,0.8,1.5,1.1,2.4c0.2,0.6,0.1,1.3,0.1,2
		c0,19.5,0,39,0,58.4c0,0.7,0,1.5-0.1,2.2c-0.3,1.9-1.8,3.4-3.6,3.7C82.4,88,81.6,88,80.8,88c-20,0-40.1,0-60.1,0
		c-1.1,0-2.2,0-3.1-0.4c-2.3-0.9-3-2.8-3-5.2c0-8.7,0-17.3,0-26c0-12.8,0-25.6,0-38.3c0-4.4,1.7-6.1,6.1-6.1c3.6,0,7.2,0,10.9,0
		c0,0.7,0.1,1.3,0.1,1.9c0,7.2,0,14.3,0,21.4c0,2.1,0.4,2.5,2.4,2.5c11.1,0,22.3,0,33.4,0c2.1,0,2.4-0.4,2.5-2.5c0-7,0-14.1,0-21.1
		C70.1,13.6,70.1,12.9,70.1,12.1z M51,81.2c8.2,0,16.4,0,24.6,0c2.6,0,2.7-0.2,2.7-2.6c0-10.5,0-21.1,0-31.6c0-2.3-0.3-2.6-2.6-2.6
		c-16.5,0-33.1,0-49.6,0c-2.4,0-2.8,0.4-2.8,2.7c0,10.5,0,21,0,31.6c0,2.2,0.3,2.6,2.5,2.6C34.2,81.2,42.6,81.2,51,81.2z"/>
</g>
</svg>
