<?xml version="1.0" encoding="utf-8"?>
<!-- Generator: Adobe Illustrator 18.1.1, SVG Export Plug-In . SVG Version: 6.00 Build 0)  -->
<svg version="1.1" id="Layer_1" xmlns="http://www.w3.org/2000/svg" xmlns:xlink="http://www.w3.org/1999/xlink" x="0px" y="0px"
	 viewBox="0 0 100 100" enable-background="new 0 0 100 100" xml:space="preserve">
<g>
	<path fill-rule="evenodd" clip-rule="evenodd" d="M94.7,66.9c-0.9,0.8-1.8,1.3-3.1,1.3c-16.6,0-33.2,0.1-49.7,0.1
		c-2.4,0-4.4-2-4.4-4.4c0-9.7,0-19.5-0.1-29.2c0-2.5,1.8-4.5,4.4-4.5c16.5,0,33.1-0.1,49.6-0.1c2.5,0,4.3,1.8,4.4,4.3
		C96,44.2,96,54,96,63.9C96,65.1,95.5,66,94.7,66.9z M92.2,64.3c0-9.6,0-19.3-0.1-29c-0.1,0.1-0.3,0.1-0.5,0.2
		c-7.7,4.9-15.5,9.9-23.2,14.8c-1,0.7-1.9,0.9-3.1,0.2c-5.9-3.8-11.9-7.5-17.9-11.3c-2.1-1.3-4.1-2.6-6.1-3.8c0,9.7,0.1,19.4,0.1,29
		C58.3,64.4,75.3,64.4,92.2,64.3z M45.9,34c1,0.6,1.9,1.2,2.8,1.8C54.5,39.4,60.3,43,66,46.6c0.5,0.3,0.9,0.4,1.5,0
		c3.6-2.4,7.3-4.7,10.9-7c3-1.9,6.1-3.9,9-5.8C73.7,33.9,59.9,34,45.9,34z"/>
	<path fill-rule="evenodd" clip-rule="evenodd" d="M3.5,38.8c-0.1-0.7-0.3-1.4-0.2-2c0.1-0.7,0.6-1.1,1.3-1.3c0.2,0,0.4,0,0.6,0
		c8.3,0,16.5,0,24.8-0.1c0.8,0,1.5,0.2,1.9,0.9c0.6,1.2-0.1,2.5-1.4,2.7c-0.2,0-0.5,0-0.7,0c-8.1,0-16.2,0.1-24.3,0
		C4.8,39.2,4.2,39,3.5,38.8z"/>
	<path fill-rule="evenodd" clip-rule="evenodd" d="M31.4,49.4c-0.3,0.1-0.8,0.3-1.2,0.3c-5.6,0-11.1,0.1-16.7,0.1
		c-1.2,0-1.9-0.8-2-1.8c0-1.1,0.8-1.8,1.9-1.8c5.6,0,11.2,0,16.8,0c0.8,0,1.4,0.4,1.7,1.1C32.2,48,32.1,48.6,31.4,49.4z"/>
	<path fill-rule="evenodd" clip-rule="evenodd" d="M31.4,60c-0.3,0.1-0.8,0.3-1.2,0.3c-2.8,0-5.5,0-8.3,0c-1.2,0-1.9-0.8-1.9-1.8
		c0-1,0.8-1.8,1.9-1.8c2.8,0,5.6,0,8.4,0c0.8,0,1.4,0.4,1.7,1.1C32.3,58.6,32.1,59.3,31.4,60z"/>
</g>
</svg>
